<svg
    xmlns="http://www.w3.org/2000/svg"
    xmlns:xlink="http://www.w3.org/1999/xlink"
    width="200"
    height="31"
    viewBox="0 0 200 31">
    <path fill="none" d="M-1-1h202v33H-1z"></path>
    <g>
        <g stroke="null" fill="#ffffff">
            <path d="M59.23 16.83h10.443v-3.47H59.23V4.978h13.983V1.505H55.398v27.99h18.406v-3.47H59.23zM106.61 1.505h3.794v27.99h-3.795zM131.14 1.143c-8.06 0-14.424 6.44-14.424 14.357 0 7.914 6.364 14.357 14.423 14.357 8.057 0 14.418-6.443 14.418-14.357 0-7.917-6.36-14.357-14.42-14.357zm0 25.17c-6.05 0-10.552-4.808-10.552-10.813 0-6.005 4.503-10.817 10.55-10.817 6.025 0 10.512 4.812 10.512 10.817s-4.487 10.814-10.51 10.814zM11.437 1.505h-9.86v27.99h3.836V20.17h6.024c6.165 0 10.5-4.232 10.5-9.335 0-5.098-4.335-9.33-10.5-9.33zm-.11 15.196H5.413V4.976h5.914c4.204 0 6.74 2.588 6.74 5.86 0 3.278-2.6 5.866-6.74 5.866zM187.066 1.505h-4.162l-11.356 27.99h4.072l2.715-6.767h13.294l2.723 6.767h4.07l-11.357-27.99zm-7.31 17.682l5.227-13.252 5.228 13.252h-10.454zM92.233 26.314c-6.115 0-10.794-4.81-10.794-10.814 0-6.005 4.678-10.817 10.793-10.817 3.09 0 5.018.925 6.854 1.88l1.54-3.052c-2.484-1.497-5.575-2.367-8.485-2.367-8.087 0-14.572 6.44-14.572 14.357 0 7.914 6.485 14.357 14.572 14.357 3.1 0 6.358-.976 8.93-2.656l-1.527-3.034c-1.915 1.153-4.137 2.148-7.312 2.148zM160.725 13.3c-3.84-1.278-6.34-2.326-6.34-5.013 0-2.128 1.656-3.657 5.046-3.657 2.352 0 4.917.848 6.41 1.526l1.248-3.17c-1.802-.863-4.944-1.843-7.728-1.843-5.267 0-8.883 2.882-8.883 7.225 0 5.09 4.71 7.067 8.166 8.214 3.58 1.187 6.632 2.368 6.632 5.352 0 2.566-2.24 4.34-6.06 4.34-3.203 0-6.577-1.356-8.54-2.38l-1.31 3.112c2.8 1.698 6.57 2.85 9.953 2.85 5.654 0 9.887-3.192 9.887-7.922 0-4.985-4.31-7.245-8.48-8.635zM47.91 10.264c0-4.72-3.82-8.76-9.37-8.76H27.718v27.99h3.83V19.007h5.9l6.834 10.49h4.538v-.06l-7.296-10.992c3.738-.963 6.386-4.35 6.386-8.18zm-16.36 5.273V4.975h6.87c3.414 0 5.658 2.34 5.658 5.29 0 2.51-2.05 5.272-5.71 5.272h-6.82z"></path>
        </g>
    </g>
</svg>