<svg width="32" height="32" viewBox="0 0 32 32" fill="none" xmlns="http://www.w3.org/2000/svg">
<path d="M28.7932 0H31.9924V31.9924H28.7932V0Z" fill="white"/>
<path d="M0 0H3.19924V31.9924H0V0Z" fill="white"/>
<path d="M30.2426 0H1.76555C1.2973 0 0.848225 0.18589 0.517119 0.516777C0.186013 0.847663 0 1.29644 0 1.76439V30.2253C0 30.6932 0.186013 31.142 0.517119 31.4729C0.848225 31.8038 1.2973 31.9897 1.76555 31.9897H17.0906V19.6037H12.9239V14.7747H17.0906V11.2134C17.0906 7.08198 19.6167 4.83171 23.3053 4.83171C24.5501 4.82727 25.7942 4.8907 27.032 5.02172V9.34039H24.4815C22.4742 9.34039 22.0857 10.2932 22.0857 11.6911V14.7747H26.869L26.247 19.6037H22.0857V31.9924H30.2344C30.7025 31.9917 31.1511 31.8056 31.4821 31.4748C31.813 31.1441 31.9993 30.6957 32 30.228V1.7671C32.0007 1.30009 31.8161 0.851849 31.4867 0.520609C31.1573 0.189368 30.7099 0.00215486 30.2426 0Z" fill="white"/>
</svg>
