<svg width="32" height="26" viewBox="0 0 32 26" fill="none" xmlns="http://www.w3.org/2000/svg">
<path d="M0 3.4002C0 2.5515 0.337142 1.73757 0.937258 1.13745C1.53737 0.537337 2.35131 0.200195 3.2 0.200195H28.8C29.6487 0.200195 30.4626 0.537337 31.0627 1.13745C31.6629 1.73757 32 2.5515 32 3.4002V22.6002C32 23.4489 31.6629 24.2628 31.0627 24.8629C30.4626 25.4631 29.6487 25.8002 28.8 25.8002H3.2C2.35131 25.8002 1.53737 25.4631 0.937258 24.8629C0.337142 24.2628 0 23.4489 0 22.6002V3.4002ZM5.6304 3.4002L16 12.4738L26.3696 3.4002H5.6304ZM28.8 5.5266L17.0544 15.805C16.7626 16.0606 16.3879 16.2016 16 16.2016C15.6121 16.2016 15.2374 16.0606 14.9456 15.805L3.2 5.5266V22.6002H28.8V5.5266Z" fill="white"/>
<path d="M1.39877e-07 0.200195H3.2V25.8002H1.39877e-07V0.200195Z" fill="white"/>
<path d="M28.8 0.200195H32V25.8002H28.8V0.200195Z" fill="white"/>
<path d="M0 3.4002L1.39877e-07 0.200195H32V3.4002H0Z" fill="white"/>
<path d="M1.39877e-07 25.8002L0 22.6002H32V25.8002H1.39877e-07Z" fill="white"/>
</svg>
