<svg width="32" height="32" viewBox="0 0 32 32" fill="none" xmlns="http://www.w3.org/2000/svg">
<path d="M1.39877e-07 0H3.2V32H1.39877e-07V0Z" fill="white"/>
<path d="M28.8 0H32V32H28.8V0Z" fill="white"/>
<path d="M1.39877e-07 3.2V0H32V3.2L1.39877e-07 3.2Z" fill="white"/>
<path d="M1.39877e-07 32L0 28.8H32V32H1.39877e-07Z" fill="white"/>
<path d="M1.81133 1.6C2.89102 0.573828 4.325 0 5.81836 0H26.1816C27.675 0 29.109 0.573828 30.1887 1.6H1.81133Z" fill="white"/>
<path d="M1.6 1.81133C0.573828 2.89102 0 4.325 0 5.81836V26.1816C0 27.675 0.573828 29.109 1.6 30.1887V1.81133Z" fill="white"/>
<path d="M1.81133 30.4C2.89102 31.4262 4.325 32 5.81836 32H26.1816C27.675 32 29.109 31.4262 30.1887 30.4H1.81133Z" fill="white"/>
<path d="M30.4 30.1887C31.4262 29.109 32 27.675 32 26.1816V5.81836C32 4.325 31.4262 2.89102 30.4 1.81133V30.1887Z" fill="white"/>
<path d="M24.377 5.86133C24.327 5.87383 24.2777 5.88867 24.2297 5.90586C24.1652 5.9293 24.1023 5.95742 24.0418 5.98984C23.9824 6.02148 23.9254 6.05742 23.8707 6.09727C23.8102 6.14102 23.7527 6.19023 23.6988 6.24414C23.5926 6.35039 23.5043 6.47148 23.4363 6.60273C23.3297 6.80781 23.2727 7.0375 23.2727 7.27266C23.2727 7.4832 23.3184 7.68906 23.4043 7.87734C23.4383 7.95156 23.4785 8.02305 23.5246 8.09102C23.5758 8.16602 23.634 8.23633 23.6988 8.30117C23.9715 8.57422 24.3414 8.72734 24.7273 8.72734C25.1129 8.72734 25.4832 8.57422 25.7559 8.30117C26.0285 8.02852 26.1816 7.65859 26.1816 7.27266C26.1816 6.88711 26.0285 6.5168 25.7559 6.24414C25.6262 6.11445 25.4746 6.01211 25.3102 5.94023C25.1281 5.86055 24.9297 5.81836 24.7273 5.81836C24.6082 5.81836 24.4906 5.8332 24.377 5.86133Z" fill="white"/>
<path fill-rule="evenodd" clip-rule="evenodd" d="M16 8.72734C14.0711 8.72734 12.2215 9.49336 10.8574 10.8574C9.49336 12.2215 8.72734 14.0711 8.72734 16C8.72734 17.9289 9.49336 19.7785 10.8574 21.1426C12.2215 22.5066 14.0711 23.2727 16 23.2727C17.9289 23.2727 19.7785 22.5066 21.1426 21.1426C22.5066 19.7785 23.2727 17.9289 23.2727 16C23.2727 14.0711 22.5066 12.2215 21.1426 10.8574C19.7785 9.49336 17.9289 8.72734 16 8.72734ZM11.6363 16C11.6363 17.1574 12.0961 18.2672 12.9145 19.0855C13.7328 19.9039 14.8426 20.3637 16 20.3637C17.1574 20.3637 18.2672 19.9039 19.0855 19.0855C19.9039 18.2672 20.3637 17.1574 20.3637 16C20.3637 14.8426 19.9039 13.7328 19.0855 12.9145C18.2672 12.0961 17.1574 11.6363 16 11.6363C14.8426 11.6363 13.7328 12.0961 12.9145 12.9145C12.8082 13.0207 12.7082 13.1316 12.6141 13.2473C12.4965 13.3918 12.3887 13.5434 12.2914 13.7004C11.8668 14.3852 11.6363 15.1809 11.6363 16Z" fill="white"/>
</svg>
