<?xml version="1.0" standalone="no"?>
<!DOCTYPE svg PUBLIC "-//W3C//DTD SVG 20010904//EN"
 "http://www.w3.org/TR/2001/REC-SVG-20010904/DTD/svg10.dtd">
<svg version="1.0" xmlns="http://www.w3.org/2000/svg"
 width="1000.000000pt" height="1000.000000pt" viewBox="0 0 1000.000000 1000.000000"
 preserveAspectRatio="xMidYMid meet">
<metadata>
Created by potrace 1.14, written by Peter Selinger 2001-2017
</metadata>
<g transform="translate(0.000000,1000.000000) scale(0.100000,-0.100000)"
fill="#000000" stroke="none">
<path d="M2070 9319 c0 -5 -14 -81 -25 -139 -7 -37 -43 -240 -50 -280 -3 -19
-10 -57 -15 -85 -19 -97 -21 -110 -24 -130 -2 -11 -9 -49 -15 -85 -20 -106
-21 -111 -36 -205 -9 -49 -20 -108 -25 -130 -11 -49 -10 -43 -10 -55 0 -12 -6
-8 -225 142 -93 65 -177 122 -185 128 -8 5 -40 27 -70 48 -79 54 -269 185
-380 260 -52 36 -123 85 -158 109 -34 23 -62 41 -62 38 0 -3 13 -20 29 -38 78
-88 131 -149 181 -207 30 -35 60 -68 65 -74 6 -6 37 -43 70 -81 33 -39 64 -75
70 -81 5 -6 33 -37 60 -69 28 -32 55 -63 60 -69 6 -6 68 -78 139 -161 71 -82
137 -159 148 -171 l18 -21 -117 -16 c-65 -10 -129 -19 -143 -22 -34 -6 -226
-35 -270 -41 -54 -6 -100 -13 -160 -24 -30 -5 -75 -12 -100 -15 -25 -3 -70
-10 -100 -15 -30 -5 -71 -12 -90 -15 -117 -17 -456 -67 -518 -77 -77 -11 -96
-27 -34 -29 20 0 48 -2 62 -4 14 -1 72 -6 130 -10 58 -4 121 -8 140 -10 19 -2
73 -6 120 -10 47 -3 105 -8 130 -10 25 -2 81 -7 125 -10 77 -6 121 -9 250 -20
33 -2 98 -7 145 -10 47 -3 101 -8 120 -10 19 -2 73 -7 120 -10 131 -9 182 -14
187 -18 2 -3 -7 -17 -20 -33 -19 -23 -406 -518 -522 -669 -47 -61 -156 -201
-169 -216 -7 -8 -33 -42 -57 -74 -24 -32 -53 -70 -64 -84 -12 -15 9 -3 50 30
39 30 192 151 340 269 410 325 568 450 590 468 11 9 37 29 57 44 l36 27 7 -37
c4 -20 9 -50 12 -67 2 -16 8 -55 13 -85 9 -53 16 -98 25 -150 2 -14 13 -79 24
-145 11 -66 23 -140 26 -165 20 -137 95 -573 99 -578 4 -3 6 6 7 19 0 13 3 35
5 49 9 51 56 336 60 370 2 19 7 42 9 50 3 8 7 35 10 60 7 55 14 100 20 120 2
8 6 35 9 60 3 25 8 56 11 70 3 14 12 68 20 120 8 52 17 109 20 125 3 17 10 59
16 95 6 36 12 71 14 77 3 7 82 -50 187 -133 101 -80 197 -156 213 -169 68 -53
112 -88 140 -110 17 -14 80 -63 140 -111 61 -48 129 -102 152 -122 l42 -35
-47 -35 c-162 -123 -430 -375 -568 -537 -282 -328 -493 -702 -627 -1110 -34
-102 -78 -272 -92 -355 -3 -19 -8 -42 -10 -50 -2 -8 -7 -42 -11 -75 -3 -33 -8
-62 -9 -65 -3 -5 -15 -179 -20 -278 l-2 -53 36 5 c20 3 56 8 81 11 25 3 54 7
65 9 37 7 110 16 160 21 28 3 61 7 75 10 38 7 77 13 170 25 114 14 152 20 175
24 17 3 82 12 155 21 27 3 125 17 150 20 14 2 79 11 145 20 66 9 131 18 145
20 21 3 69 10 225 30 17 2 66 9 110 16 44 6 91 13 105 14 14 1 59 7 100 13 41
7 95 14 120 17 25 3 72 10 105 15 33 5 85 12 115 15 30 3 62 8 70 10 8 2 38 6
65 10 91 10 171 21 240 32 22 3 51 7 65 8 14 2 43 6 65 9 22 3 56 8 75 11 19
2 67 9 105 14 93 14 118 17 267 37 l127 17 -20 26 c-11 14 -35 42 -52 61 -18
19 -81 91 -141 160 -60 69 -123 141 -140 160 -17 19 -92 105 -166 190 -74 85
-137 157 -140 160 -3 3 -34 39 -70 80 -36 41 -67 77 -70 80 -3 3 -35 39 -70
80 -36 41 -67 77 -70 80 -3 3 -34 39 -70 80 -36 41 -67 77 -70 80 -3 3 -54 61
-114 130 -60 69 -123 141 -140 160 -18 19 -92 105 -166 190 -74 85 -142 161
-150 170 -8 9 -37 42 -65 74 -27 33 -55 64 -60 70 -53 58 -155 184 -389 486
-152 195 -305 392 -341 438 -59 74 -63 82 -43 83 13 0 30 2 39 4 9 1 65 6 125
10 60 3 123 8 139 10 17 2 66 7 110 10 44 3 105 8 135 10 131 11 180 15 255
20 44 3 103 7 130 9 28 3 88 8 135 11 47 4 101 8 120 10 19 2 76 6 125 10 50
4 106 8 125 10 19 2 61 5 93 6 56 2 69 10 24 16 -12 1 -49 7 -82 12 -33 6 -80
13 -105 16 -25 3 -103 15 -175 26 -71 11 -146 22 -165 25 -19 3 -46 7 -60 9
-14 3 -47 7 -75 11 -27 3 -52 8 -55 9 -3 2 -33 7 -65 10 -33 4 -67 9 -77 10
-9 2 -38 7 -65 11 -26 3 -57 8 -68 10 -11 2 -67 11 -125 20 -58 8 -118 17
-135 20 -16 3 -41 7 -55 9 -14 2 -59 9 -100 16 -82 13 -104 16 -138 18 -27 1
-21 16 29 71 17 19 52 59 78 89 25 30 51 59 56 65 6 6 37 43 70 81 33 39 62
72 65 75 7 7 120 137 151 174 13 16 35 41 49 56 14 15 36 40 49 56 43 51 205
238 233 269 16 17 28 33 28 37 0 5 -161 -104 -480 -325 -14 -9 -56 -38 -95
-64 -38 -26 -74 -51 -80 -56 -48 -40 -412 -283 -417 -278 -3 3 -9 22 -12 41
-3 19 -12 71 -20 115 -9 44 -18 94 -21 110 -3 17 -7 41 -9 55 -3 14 -21 115
-40 225 -20 110 -38 211 -41 225 -8 41 -47 262 -52 300 -4 29 -13 55 -13 39z"/>
<path d="M35 7720 c-3 -5 -1 -10 4 -10 6 0 11 5 11 10 0 6 -2 10 -4 10 -3 0
-8 -4 -11 -10z"/>
<path d="M5606 7522 c-2 -1 -38 -4 -82 -7 -156 -10 -369 -37 -514 -65 -30 -6
-68 -13 -85 -15 -16 -3 -42 -8 -57 -11 -15 -3 -31 -6 -35 -6 -5 0 -18 -4 -31
-9 -13 -5 -37 -11 -54 -14 -120 -21 -475 -135 -663 -212 -110 -45 -307 -135
-335 -152 -8 -5 -40 -22 -70 -37 -112 -56 -411 -241 -424 -263 -3 -5 49 -51
117 -102 67 -51 176 -134 242 -184 139 -106 359 -274 630 -480 105 -79 236
-179 292 -222 56 -43 220 -168 365 -277 145 -110 268 -205 274 -210 7 -6 24
-20 40 -31 15 -11 88 -66 162 -123 74 -57 136 -102 137 -100 2 2 8 41 15 88 6
47 13 96 15 110 3 14 6 45 9 70 3 25 10 79 15 120 14 95 20 136 25 180 20 154
48 370 51 390 2 14 13 97 25 185 29 221 31 237 35 265 2 14 6 48 10 75 3 28 8
61 10 75 2 14 14 99 25 190 11 91 23 176 25 190 3 21 26 200 51 390 3 25 9 69
15 99 18 107 26 100 -112 98 -66 -1 -122 -3 -123 -5z"/>
<path d="M5914 7503 c4 -25 22 -154 31 -228 7 -60 17 -127 19 -143 2 -10 7
-44 11 -77 4 -32 8 -66 10 -75 1 -8 6 -40 9 -70 4 -30 8 -66 10 -80 3 -14 10
-68 16 -120 6 -52 13 -106 16 -120 2 -14 6 -50 10 -80 3 -30 8 -64 10 -75 2
-11 6 -44 10 -73 3 -29 7 -63 10 -75 2 -12 6 -44 9 -72 4 -27 8 -61 10 -75 2
-14 6 -50 10 -80 7 -55 10 -78 19 -135 3 -16 8 -55 11 -85 3 -30 8 -62 10 -70
2 -8 7 -46 10 -85 4 -38 8 -72 10 -75 2 -3 6 -33 10 -67 3 -34 7 -70 9 -80 2
-10 7 -45 11 -78 4 -32 8 -66 10 -75 1 -8 6 -41 10 -74 3 -32 8 -68 10 -80 2
-11 6 -43 10 -71 11 -94 1 -97 178 37 89 68 164 125 167 129 3 3 32 25 64 49
33 24 67 49 75 56 33 27 921 702 1181 899 80 60 147 112 150 115 3 3 41 32 85
65 348 261 384 291 367 306 -29 25 -253 164 -352 218 -87 49 -262 135 -352
175 -21 9 -53 22 -70 30 -175 77 -562 201 -748 241 -237 50 -385 75 -530 90
-30 3 -71 8 -90 10 -49 7 -152 14 -313 21 l-138 6 5 -29z"/>
<path d="M8463 6587 c-54 -61 -102 -117 -108 -123 -5 -6 -35 -39 -65 -74 -30
-34 -65 -75 -78 -89 -13 -14 -42 -48 -65 -75 -23 -26 -53 -61 -67 -76 -14 -15
-36 -40 -50 -56 -44 -51 -155 -178 -165 -190 -5 -6 -35 -40 -66 -75 -31 -35
-141 -161 -245 -280 -168 -192 -260 -297 -317 -363 -10 -12 -44 -50 -76 -86
-32 -36 -95 -108 -140 -160 -46 -52 -100 -113 -120 -136 -20 -23 -59 -68 -87
-100 -28 -32 -68 -77 -87 -99 -42 -46 -45 -55 -17 -56 11 -1 23 -2 28 -3 4 -1
36 -6 72 -10 36 -5 74 -10 85 -12 11 -3 36 -6 55 -8 39 -4 190 -25 230 -31 14
-2 48 -7 75 -10 28 -3 61 -8 75 -11 14 -2 59 -8 100 -14 41 -5 143 -18 225
-30 83 -11 170 -23 195 -26 25 -3 52 -7 60 -9 8 -2 41 -7 73 -10 32 -4 66 -8
75 -10 9 -1 42 -6 72 -10 30 -4 62 -9 70 -10 8 -1 40 -6 70 -10 30 -3 66 -8
80 -10 23 -4 57 -8 148 -20 20 -3 100 -14 177 -24 77 -11 160 -23 185 -26 25
-3 61 -8 80 -10 19 -3 53 -7 75 -10 22 -3 49 -6 60 -9 11 -2 45 -7 75 -11 30
-3 66 -8 80 -10 14 -2 43 -6 65 -9 22 -3 74 -11 115 -17 41 -5 89 -12 105 -14
17 -1 49 -6 73 -9 23 -3 61 -9 85 -12 23 -3 53 -7 67 -9 26 -4 145 -20 218
-30 l43 -6 -6 129 c-3 71 -7 137 -9 148 -2 10 -7 48 -11 84 -3 36 -10 81 -15
100 -5 19 -11 53 -14 75 -6 45 -63 275 -79 315 -3 8 -13 40 -22 70 -50 160
-185 448 -291 622 -57 93 -199 298 -232 334 -9 11 -35 42 -57 69 -148 185
-400 425 -642 608 l-61 47 -99 -113z"/>
<path d="M1766 4003 c1 -21 5 -81 8 -133 7 -107 13 -162 26 -235 6 -27 12 -68
16 -90 3 -22 10 -60 16 -85 5 -25 12 -54 14 -66 7 -36 64 -226 89 -294 142
-396 367 -772 648 -1081 146 -160 280 -288 462 -438 11 -9 41 -32 68 -50 26
-19 47 -39 47 -45 0 -15 11 -1 220 258 8 10 20 23 25 30 6 6 28 34 50 61 22
28 44 55 50 61 5 6 24 28 40 49 17 21 53 66 80 100 28 34 66 81 85 105 19 24
69 85 110 135 41 50 89 109 105 130 17 21 35 43 40 49 6 6 28 33 50 61 36 45
162 200 204 250 9 11 42 52 73 90 31 39 80 99 109 135 29 36 91 112 138 170
151 187 166 205 171 210 3 3 32 39 65 80 33 41 62 77 65 80 3 3 41 50 85 105
44 55 82 102 85 105 3 3 20 24 39 48 l33 42 -44 1 c-59 2 -126 5 -238 13 -52
3 -131 9 -175 11 -168 11 -213 14 -305 20 -52 3 -129 8 -170 10 -174 9 -288
16 -335 20 -52 4 -146 10 -470 30 -49 3 -126 8 -170 10 -44 3 -118 7 -165 10
-47 3 -121 7 -165 10 -44 3 -114 7 -155 10 -41 2 -118 7 -170 11 -52 3 -115 8
-140 9 -25 2 -103 6 -175 10 -71 4 -146 9 -165 10 -19 1 -89 5 -156 10 l-121
7 3 -39z"/>
<path d="M9877 4034 c-1 -1 -63 -5 -137 -8 -74 -4 -153 -9 -175 -11 -22 -2
-96 -6 -165 -10 -69 -4 -141 -9 -160 -10 -19 -1 -89 -5 -155 -9 -66 -4 -145
-9 -175 -11 -30 -2 -100 -7 -155 -10 -55 -3 -125 -8 -155 -10 -30 -2 -102 -7
-160 -10 -58 -3 -132 -7 -165 -10 -33 -2 -109 -6 -170 -10 -60 -3 -135 -8
-165 -10 -71 -5 -223 -14 -325 -20 -44 -2 -118 -7 -165 -10 -146 -10 -201 -14
-315 -20 -60 -3 -135 -8 -165 -10 -30 -2 -104 -7 -165 -10 -60 -4 -112 -8
-114 -10 -2 -3 133 -175 174 -221 6 -6 22 -26 37 -45 14 -19 63 -79 108 -134
45 -55 107 -131 138 -170 31 -38 64 -79 73 -90 26 -31 227 -278 394 -485 82
-102 151 -187 154 -190 4 -3 33 -39 66 -80 69 -87 86 -108 100 -124 6 -6 37
-45 70 -86 33 -41 67 -84 76 -95 18 -21 159 -195 208 -255 16 -19 84 -102 151
-185 67 -82 128 -158 135 -168 11 -16 16 -17 37 -6 22 12 143 106 178 139 9 8
45 40 80 70 75 64 245 233 310 306 82 93 95 108 161 194 394 507 623 1110 654
1723 l6 108 -61 -3 c-34 -1 -62 -3 -63 -4z"/>
<path d="M5395 3288 c-66 -55 -136 -115 -156 -132 -20 -17 -56 -47 -80 -68
-24 -20 -54 -45 -67 -56 -13 -11 -41 -35 -64 -54 -23 -18 -46 -37 -52 -43 -6
-5 -40 -35 -76 -65 -36 -30 -67 -57 -70 -60 -3 -3 -59 -50 -125 -105 -66 -55
-125 -104 -131 -110 -18 -16 -104 -89 -185 -157 -100 -84 -193 -162 -199 -168
-3 -3 -32 -28 -65 -55 -33 -27 -78 -65 -101 -85 -50 -43 -82 -71 -159 -135
-33 -27 -62 -52 -65 -55 -3 -3 -32 -27 -65 -55 -33 -27 -65 -54 -71 -60 -6 -5
-32 -28 -59 -50 -335 -278 -384 -323 -367 -337 14 -12 170 -114 237 -155 263
-161 652 -336 960 -431 111 -35 334 -95 400 -108 11 -2 43 -8 71 -14 28 -6 61
-13 75 -15 13 -2 51 -8 84 -14 82 -14 112 -19 165 -26 25 -3 61 -7 80 -10 114
-15 250 -24 424 -30 l118 -4 -7 56 c-4 30 -8 65 -10 77 -2 11 -6 46 -9 76 -3
30 -10 89 -15 130 -6 41 -13 102 -16 135 -3 33 -8 67 -10 75 -2 8 -7 47 -10
85 -4 39 -8 77 -10 85 -2 8 -7 40 -10 70 -3 30 -10 89 -15 130 -10 80 -18 151
-25 214 -3 21 -7 55 -10 75 -2 20 -8 59 -11 86 -3 28 -8 61 -9 75 -2 14 -6 50
-9 80 -4 30 -11 93 -17 140 -5 47 -12 103 -15 125 -8 70 -15 129 -19 155 -2
14 -7 52 -10 85 -4 33 -8 71 -10 85 -6 37 -13 94 -25 200 -6 52 -13 109 -15
125 -2 17 -7 55 -10 85 -3 30 -8 71 -10 90 -3 19 -9 75 -15 125 -6 49 -12 90
-13 92 -1 1 -56 -44 -122 -99z"/>
<path d="M6243 3368 c0 -7 -3 -38 -7 -68 -3 -30 -11 -93 -17 -140 -15 -128
-18 -157 -23 -198 -3 -20 -8 -64 -12 -97 -3 -33 -8 -69 -10 -80 -2 -11 -6 -49
-9 -85 -3 -36 -8 -72 -10 -80 -2 -8 -7 -40 -10 -70 -3 -30 -10 -89 -15 -130
-6 -41 -12 -95 -15 -120 -11 -97 -16 -136 -20 -160 -2 -14 -7 -52 -10 -85 -7
-67 -15 -137 -20 -175 -2 -14 -7 -52 -10 -85 -4 -33 -8 -71 -11 -85 -3 -24 -8
-63 -19 -165 -3 -27 -7 -59 -9 -70 -2 -11 -7 -49 -11 -85 -3 -36 -8 -76 -10
-90 -2 -14 -6 -50 -10 -80 -3 -30 -8 -66 -10 -80 -2 -14 -7 -50 -10 -80 -7
-67 -11 -101 -25 -205 -5 -44 -13 -105 -16 -135 -4 -30 -8 -58 -10 -61 -2 -4
2 -11 9 -17 16 -13 282 -5 437 13 19 2 78 9 130 15 153 18 423 69 585 110 138
35 365 104 425 128 35 14 63 25 75 27 30 7 236 97 391 171 67 31 247 129 284
154 8 5 29 17 45 26 36 20 226 143 239 155 11 10 5 15 -89 94 -33 27 -66 55
-73 62 -7 7 -34 29 -60 50 -26 21 -49 40 -52 43 -3 3 -32 28 -65 55 -63 53
-66 55 -190 162 -44 37 -102 86 -129 108 -27 22 -58 49 -70 60 -13 11 -45 38
-71 60 -27 22 -70 58 -95 80 -25 22 -66 56 -90 75 -24 19 -48 40 -54 46 -6 5
-87 74 -181 153 -195 165 -263 222 -279 236 -6 6 -38 33 -71 60 -33 28 -65 55
-71 60 -6 6 -32 28 -59 50 -26 22 -53 45 -59 50 -6 6 -51 44 -101 85 -49 41
-92 77 -95 80 -3 3 -32 28 -65 55 -33 28 -65 55 -71 61 -6 5 -31 26 -54 45
-23 18 -61 51 -84 71 -43 39 -63 47 -63 26z"/>
</g>
</svg>
